<svg xmlns="http://www.w3.org/2000/svg" viewBox="0 0 184 84" role="img" aria-labelledby="title">
  <title id="title">UGK</title>
  <g shape-rendering="crispEdges">
    <g opacity=".72" fill="#0b0f0a" transform="translate(4 4)">
      <rect x="0" y="0" width="10" height="10"/><rect x="40" y="0" width="10" height="10"/><rect x="0" y="10" width="10" height="10"/><rect x="40" y="10" width="10" height="10"/><rect x="0" y="20" width="10" height="10"/><rect x="40" y="20" width="10" height="10"/><rect x="0" y="30" width="10" height="10"/><rect x="40" y="30" width="10" height="10"/><rect x="0" y="40" width="10" height="10"/><rect x="40" y="40" width="10" height="10"/><rect x="0" y="50" width="10" height="10"/><rect x="40" y="50" width="10" height="10"/><rect x="10" y="60" width="10" height="10"/><rect x="20" y="60" width="10" height="10"/><rect x="30" y="60" width="10" height="10"/>
      <rect x="64" y="0" width="10" height="10"/><rect x="74" y="0" width="10" height="10"/><rect x="84" y="0" width="10" height="10"/><rect x="94" y="0" width="10" height="10"/><rect x="104" y="0" width="10" height="10"/><rect x="64" y="10" width="10" height="10"/><rect x="64" y="20" width="10" height="10"/><rect x="64" y="30" width="10" height="10"/><rect x="84" y="30" width="10" height="10"/><rect x="94" y="30" width="10" height="10"/><rect x="104" y="30" width="10" height="10"/><rect x="64" y="40" width="10" height="10"/><rect x="104" y="40" width="10" height="10"/><rect x="64" y="50" width="10" height="10"/><rect x="104" y="50" width="10" height="10"/><rect x="74" y="60" width="10" height="10"/><rect x="84" y="60" width="10" height="10"/><rect x="94" y="60" width="10" height="10"/>
      <rect x="128" y="0" width="10" height="10"/><rect x="168" y="0" width="10" height="10"/><rect x="128" y="10" width="10" height="10"/><rect x="158" y="10" width="10" height="10"/><rect x="128" y="20" width="10" height="10"/><rect x="148" y="20" width="10" height="10"/><rect x="128" y="30" width="10" height="10"/><rect x="138" y="30" width="10" height="10"/><rect x="128" y="40" width="10" height="10"/><rect x="148" y="40" width="10" height="10"/><rect x="128" y="50" width="10" height="10"/><rect x="158" y="50" width="10" height="10"/><rect x="128" y="60" width="10" height="10"/><rect x="168" y="60" width="10" height="10"/>
    </g>
    <g fill="#ff6478">
      <rect x="0" y="0" width="10" height="10"/><rect x="40" y="0" width="10" height="10"/><rect x="0" y="10" width="10" height="10"/><rect x="40" y="10" width="10" height="10"/><rect x="0" y="20" width="10" height="10"/><rect x="40" y="20" width="10" height="10"/>
      <rect x="64" y="0" width="10" height="10"/><rect x="74" y="0" width="10" height="10"/><rect x="84" y="0" width="10" height="10"/><rect x="94" y="0" width="10" height="10"/><rect x="104" y="0" width="10" height="10"/><rect x="64" y="10" width="10" height="10"/><rect x="64" y="20" width="10" height="10"/>
      <rect x="128" y="0" width="10" height="10"/><rect x="168" y="0" width="10" height="10"/><rect x="128" y="10" width="10" height="10"/><rect x="158" y="10" width="10" height="10"/><rect x="128" y="20" width="10" height="10"/><rect x="148" y="20" width="10" height="10"/>
    </g>
    <g fill="#e9ca55">
      <rect x="0" y="30" width="10" height="10"/><rect x="40" y="30" width="10" height="10"/><rect x="0" y="40" width="10" height="10"/><rect x="40" y="40" width="10" height="10"/>
      <rect x="64" y="30" width="10" height="10"/><rect x="84" y="30" width="10" height="10"/><rect x="94" y="30" width="10" height="10"/><rect x="104" y="30" width="10" height="10"/><rect x="64" y="40" width="10" height="10"/><rect x="104" y="40" width="10" height="10"/>
      <rect x="128" y="30" width="10" height="10"/><rect x="138" y="30" width="10" height="10"/><rect x="128" y="40" width="10" height="10"/><rect x="148" y="40" width="10" height="10"/>
    </g>
    <g fill="#91e85f">
      <rect x="0" y="50" width="10" height="10"/><rect x="40" y="50" width="10" height="10"/><rect x="10" y="60" width="10" height="10"/><rect x="20" y="60" width="10" height="10"/><rect x="30" y="60" width="10" height="10"/>
      <rect x="64" y="50" width="10" height="10"/><rect x="104" y="50" width="10" height="10"/><rect x="74" y="60" width="10" height="10"/><rect x="84" y="60" width="10" height="10"/><rect x="94" y="60" width="10" height="10"/>
      <rect x="128" y="50" width="10" height="10"/><rect x="158" y="50" width="10" height="10"/><rect x="128" y="60" width="10" height="10"/><rect x="168" y="60" width="10" height="10"/>
    </g>
  </g>
</svg>
